HIERARCHY
ROOT joint_Root
{
	OFFSET 0.0 0.0 0.0
	CHANNELS 6 Xposition Yposition Zposition Zrotation Xrotation Yrotation 
	JOINT Hips
	{
		OFFSET -17.1583 93.1646 452.98
		CHANNELS 6 Xposition Yposition Zposition Zrotation Xrotation Yrotation 
		JOINT Spine
		{
			OFFSET 15.7357 0.0 0.0
			CHANNELS 6 Xposition Yposition Zposition Zrotation Xrotation Yrotation 
			JOINT Chest
			{
				OFFSET 8.98455 -0.406207 0.0
				CHANNELS 6 Xposition Yposition Zposition Zrotation Xrotation Yrotation 
				JOINT Neck
				{
					OFFSET 16.3773 0.0 0.0
					CHANNELS 6 Xposition Yposition Zposition Zrotation Xrotation Yrotation 
					JOINT Head
					{
						OFFSET 6.45672 0.0 0.0
						CHANNELS 6 Xposition Yposition Zposition Zrotation Xrotation Yrotation 
						End Site
						{
							OFFSET 0.0 0.0 0.0
						}
					}
				}
				JOINT Shoulder_L
				{
					OFFSET 12.9942 -0.242716 4.98039
					CHANNELS 6 Xposition Yposition Zposition Zrotation Xrotation Yrotation 
					JOINT UpperArm_L
					{
						OFFSET 5.34809 0.0 0.0
						CHANNELS 6 Xposition Yposition Zposition Zrotation Xrotation Yrotation 
						JOINT LowerArm_L
						{
							OFFSET 24.3286 1.87007e-05 0.0
							CHANNELS 6 Xposition Yposition Zposition Zrotation Xrotation Yrotation 
							JOINT Hand_L
							{
								OFFSET 22.2916 0.0 0.0
								CHANNELS 6 Xposition Yposition Zposition Zrotation Xrotation Yrotation 
								End Site
								{
									OFFSET 0.0 0.0 0.0
								}
							}
						}
					}
				}
				JOINT Shoulder_R
				{
					OFFSET 12.9945 -0.242716 -4.98039
					CHANNELS 6 Xposition Yposition Zposition Zrotation Xrotation Yrotation 
					JOINT UpperArm_R
					{
						OFFSET -5.34813 0.0 0.0
						CHANNELS 6 Xposition Yposition Zposition Zrotation Xrotation Yrotation 
						JOINT LowerArm_R
						{
							OFFSET -24.3289 0.000322201 0.0
							CHANNELS 6 Xposition Yposition Zposition Zrotation Xrotation Yrotation 
							JOINT Hand_R
							{
								OFFSET -22.2915 -0.000108084 0.0
								CHANNELS 6 Xposition Yposition Zposition Zrotation Xrotation Yrotation 
								End Site
								{
									OFFSET 0.0 0.0 0.0
								}
							}
						}
					}
				}
			}
		}
		JOINT UpperLeg_L
		{
			OFFSET -2.19248 -6.46944 0.0
			CHANNELS 6 Xposition Yposition Zposition Zrotation Xrotation Yrotation 
			JOINT LowerLeg_L
			{
				OFFSET 39.0811 0.0 -1.23785e-05
				CHANNELS 6 Xposition Yposition Zposition Zrotation Xrotation Yrotation 
				JOINT Foot_L
				{
					OFFSET 40.9854 0.0 -1.26872e-05
					CHANNELS 6 Xposition Yposition Zposition Zrotation Xrotation Yrotation 
					JOINT Toes_L
					{
						OFFSET 11.7543 0.0 0.0
						CHANNELS 6 Xposition Yposition Zposition Zrotation Xrotation Yrotation 
						End Site
						{
							OFFSET 0.0 0.0 0.0
						}
					}
				}
			}
		}
		JOINT UpperLeg_R
		{
			OFFSET -2.19251 6.46944 0.0
			CHANNELS 6 Xposition Yposition Zposition Zrotation Xrotation Yrotation 
			JOINT LowerLeg_R
			{
				OFFSET -39.0811 -0.00228153 -0.0401928
				CHANNELS 6 Xposition Yposition Zposition Zrotation Xrotation Yrotation 
				JOINT Foot_R
				{
					OFFSET -40.9854 0.0 0.0
					CHANNELS 6 Xposition Yposition Zposition Zrotation Xrotation Yrotation 
					JOINT Toes_R
					{
						OFFSET -11.7543 0.0 0.0
						CHANNELS 6 Xposition Yposition Zposition Zrotation Xrotation Yrotation 
						End Site
						{
							OFFSET 0.0 0.0 0.0
						}
					}
				}
			}
		}
	}
}
MOTION
Frames:	6
Frame Time:	0.0333333
0.000000 0.000000 0.000000 0.000000 0.000000 -0.000000 -198.826000 91.940100 189.271000 81.682300 83.777800 9.942390 15.735700 0.000005 -0.000001 69.892000 85.402300 -69.490700 8.984550 -0.406207 -0.000000 0.882055 -3.184190 0.826760 16.377300 -0.000001 -0.000001 5.532580 6.865100 -2.225820 6.456720 -0.000001 -0.000000 -5.804450 9.162290 3.446880 12.994200 -0.242716 4.980390 -92.923400 7.660270 -69.038000 5.348090 -0.000007 -0.000001 -71.884300 -8.671520 -4.980420 24.328600 0.000019 0.000005 38.546200 15.886000 -71.039800 22.291600 -0.000001 0.000005 51.058900 4.502610 16.556600 12.994500 -0.242716 -4.980390 88.882600 3.089490 -70.104800 -5.348130 -0.000001 -0.000004 -63.980200 -11.744700 13.092100 -24.328900 0.000322 -0.000009 -0.230912 -4.827490 -2.729480 -22.291500 -0.000108 -0.000004 54.224700 5.516550 -7.216240 -2.192480 -6.469440 -0.000000 179.747000 -5.228130 7.765200 39.081100 -0.000007 -0.000012 -0.000999 0.003000 18.418300 40.985400 -0.000006 -0.000013 -1.562300 13.765400 -66.531900 11.754300 -0.000000 0.000003 0.537455 0.668601 -16.380800 -2.192510 6.469440 -0.000001 -177.622000 -11.034600 159.803000 -39.081100 -0.002282 -0.040193 0.004661 -0.006562 11.408900 -40.985400 0.000008 0.000006 -3.597060 -10.959500 -63.784100 -11.754300 -0.000006 -0.000006 -0.002831 0.206340 -8.200820
0.000000 0.000000 0.000000 0.000000 0.000000 -0.000000 -195.603000 91.247000 189.467000 81.658500 83.933300 10.088100 15.735700 0.000005 -0.000001 70.325800 85.343800 -69.906500 8.984550 -0.406207 -0.000000 1.016500 -3.158670 0.866125 16.377300 -0.000001 -0.000001 5.325450 6.815900 -2.259780 6.456720 -0.000001 -0.000000 -5.831450 8.938770 3.420510 12.994200 -0.242716 4.980390 -92.984700 7.863840 -69.139100 5.348090 -0.000007 -0.000001 -71.777500 -9.056410 -5.757980 24.328600 0.000019 0.000005 39.304000 15.468600 -71.953800 22.291600 -0.000001 0.000005 51.617000 4.476940 16.979200 12.994500 -0.242716 -4.980390 88.737800 3.501070 -70.161100 -5.348130 -0.000001 -0.000004 -63.220800 -12.022700 13.076000 -24.328900 0.000322 -0.000009 -0.194853 -4.812830 -2.308800 -22.291500 -0.000108 -0.000004 54.318600 5.509540 -6.922960 -2.192480 -6.469440 -0.000000 179.669000 -4.860130 8.970900 39.081100 -0.000007 -0.000012 -0.003788 0.010174 20.421200 40.985400 -0.000006 -0.000013 -0.861406 13.369200 -67.400400 11.754300 -0.000000 0.000003 0.081154 0.055332 -18.237500 -2.192510 6.469440 -0.000001 -176.598000 -8.182220 159.938000 -39.081100 -0.002282 -0.040193 0.005712 -0.017122 7.880370 -40.985400 0.000008 0.000006 -4.854110 -4.907190 -64.370500 -11.754300 -0.000006 -0.000006 -0.002773 0.205673 -8.227960
0.000000 0.000000 0.000000 0.000000 0.000000 -0.000000 -191.966000 90.567100 189.678000 79.242100 84.703300 12.448800 15.735700 0.000005 -0.000001 68.342600 85.382500 -67.787200 8.984550 -0.406207 -0.000000 0.836170 -3.440580 1.135280 16.377300 -0.000001 -0.000001 5.284000 6.621930 -2.403020 6.456720 -0.000001 -0.000000 -5.735790 8.696260 3.175880 12.994200 -0.242716 4.980390 -93.046300 8.061190 -69.217900 5.348090 -0.000007 -0.000001 -71.940800 -8.864610 -5.586050 24.328600 0.000019 0.000005 38.769000 15.502700 -71.592400 22.291600 -0.000001 0.000005 51.939400 4.462420 17.217000 12.994500 -0.242716 -4.980390 88.598900 3.842440 -69.948500 -5.348130 -0.000001 -0.000004 -62.951100 -11.425400 12.733100 -24.328900 0.000322 -0.000009 -0.200060 -4.357270 -2.617760 -22.291500 -0.000108 -0.000004 53.567300 5.509310 -6.913220 -2.192480 -6.469440 -0.000000 179.834000 -4.413310 9.913260 39.081100 -0.000007 -0.000012 -0.005008 0.011923 22.785700 40.985400 -0.000006 -0.000013 0.184493 13.354200 -67.444200 11.754300 -0.000000 0.000003 -0.014335 -0.133599 -22.026600 -2.192510 6.469440 -0.000001 -176.260000 -7.463950 159.268000 -39.081100 -0.002282 -0.040193 0.004505 -0.007795 8.494060 -40.985400 0.000008 0.000006 -4.888410 -3.671780 -65.346300 -11.754300 -0.000006 -0.000006 -0.003101 0.209406 -8.076050
0.000000 0.000000 0.000000 0.000000 0.000000 -0.000000 -187.986000 90.048900 190.001000 66.523400 85.392200 24.547600 15.735700 0.000005 -0.000001 66.052900 85.706300 -65.051400 8.984550 -0.406207 -0.000000 0.115400 -3.551510 2.005760 16.377300 -0.000001 -0.000001 5.782170 6.295460 -2.891750 6.456720 -0.000001 -0.000000 -5.927230 8.308600 2.990420 12.994200 -0.242716 4.980390 -93.203100 8.495810 -69.253500 5.348090 -0.000007 -0.000001 -72.080600 -7.974150 -4.632990 24.328600 0.000019 0.000005 38.090300 16.755400 -69.806200 22.291600 -0.000001 0.000005 52.553600 4.490240 16.762800 12.994500 -0.242716 -4.980390 88.338500 4.467250 -69.574700 -5.348130 -0.000001 -0.000004 -62.774200 -10.473800 12.131500 -24.328900 0.000322 -0.000009 -0.253438 -4.318200 -3.348540 -22.291500 -0.000108 -0.000004 52.710600 5.516870 -7.230550 -2.192480 -6.469440 -0.000000 -178.894000 -4.753280 10.021700 39.081100 -0.000007 -0.000012 -0.004110 0.008563 25.638000 40.985400 -0.000006 -0.000013 1.364830 13.777000 -65.863600 11.754300 -0.000000 0.000003 -0.044433 -0.277332 -27.982700 -2.192510 6.469440 -0.000001 -175.365000 -7.668980 156.656000 -39.081100 -0.002282 -0.040193 -0.002739 0.023996 14.196600 -40.985400 0.000008 0.000006 -3.532680 -7.149920 -63.183000 -11.754300 -0.000006 -0.000006 -0.001635 0.191717 -8.795630
0.000000 0.000000 0.000000 0.000000 0.000000 -0.000000 -183.660000 89.753100 190.383000 42.587500 85.505100 47.703300 15.735700 0.000005 -0.000001 64.134000 86.253000 -62.378200 8.984550 -0.406207 -0.000000 -0.968221 -3.402520 3.482160 16.377300 -0.000001 -0.000001 6.525550 5.777220 -3.581490 6.456720 -0.000001 -0.000000 -5.731520 7.705400 2.565130 12.994200 -0.242716 4.980390 -93.471300 9.197230 -69.217600 5.348090 -0.000007 -0.000001 -72.312700 -6.337230 -3.315220 24.328600 0.000019 0.000005 36.901900 19.550600 -65.979600 22.291600 -0.000001 0.000005 53.616800 4.525940 16.169100 12.994500 -0.242716 -4.980390 88.016500 5.213130 -69.135700 -5.348130 -0.000001 -0.000004 -62.561000 -9.461010 11.050000 -24.328900 0.000322 -0.000009 -0.262718 -4.329320 -3.462480 -22.291500 -0.000108 -0.000004 52.052400 5.522950 -7.488480 -2.192480 -6.469440 -0.000000 -176.938000 -4.908050 9.251900 39.081100 -0.000007 -0.000012 -0.003293 0.005845 29.403300 40.985400 -0.000006 -0.000013 2.454030 14.139700 -62.099200 11.754300 -0.000000 0.000003 -0.102248 -0.450112 -35.374300 -2.192510 6.469440 -0.000001 -173.007000 -7.002020 154.355000 -39.081100 -0.002282 -0.040193 0.015857 -0.033737 20.384200 -40.985400 0.000008 0.000006 2.128730 -9.946610 -59.164100 -11.754300 -0.000006 -0.000006 -0.002920 0.207365 -8.159130
0.000000 0.000000 0.000000 0.000000 0.000000 -0.000000 -179.026000 89.655000 190.726000 25.974300 84.374300 64.687700 15.735700 0.000005 -0.000001 67.549800 86.575400 -64.879500 8.984550 -0.406207 -0.000000 -1.364830 -2.827610 5.305990 16.377300 -0.000001 -0.000001 7.087060 5.393080 -3.958050 6.456720 -0.000001 -0.000000 -4.980910 7.116800 1.447640 12.994200 -0.242716 4.980390 -93.567100 9.349250 -69.006400 5.348090 -0.000007 -0.000001 -73.526800 -4.770710 -2.022910 24.328600 0.000019 0.000005 35.330300 24.623700 -59.553300 22.291600 -0.000001 0.000005 53.669700 4.565650 15.501200 12.994500 -0.242716 -4.980390 87.860000 5.512700 -68.744900 -5.348130 -0.000001 -0.000004 -63.169200 -7.609730 8.599780 -24.328900 0.000322 -0.000009 -0.230481 -5.234470 -2.513850 -22.291500 -0.000108 -0.000004 51.549200 5.528300 -7.720640 -2.192480 -6.469440 -0.000000 -174.825000 -5.075400 8.451300 39.081100 -0.000007 -0.000012 -0.011011 0.016074 34.414800 40.985400 -0.000006 -0.000013 2.383980 13.915100 -54.703900 11.754300 -0.000000 0.000003 -0.176751 -0.605025 -42.347900 -2.192510 6.469440 -0.000001 -170.828000 -7.092580 154.899000 -39.081100 -0.002282 -0.040193 0.056743 -0.113405 25.227700 -40.985400 0.000008 0.000006 2.781390 -10.016000 -59.326600 -11.754300 -0.000006 -0.000006 -0.004746 0.226649 -7.373850
